<svg width="16" height="16" viewBox="0 0 16 16" fill="none" xmlns="http://www.w3.org/2000/svg">
<path d="M8.74416 2.74047L8.40954 3.07623L11.265 3.32246L12.9828 1.59887C13.2505 1.33026 13.7413 0.927346 14.4551 0.479662C15.169 0.0319775 15.6375 -0.102328 15.816 0.0767459C16.3067 0.569199 15.816 1.53172 14.3436 2.98669L12.6481 4.6879L12.8935 7.55308L13.2282 7.2397C13.4959 6.9487 13.7859 6.9487 14.009 7.17254C14.2767 7.44115 14.1651 7.82169 13.6297 8.35891L13.0943 8.91851L13.362 10.8436L13.7413 10.4406C13.9867 10.172 14.2544 10.172 14.4998 10.3959C14.7675 10.6645 14.7228 11.0002 14.3659 11.3584L13.5628 12.1642C13.8751 14.3131 13.9197 15.5219 13.6743 15.7681C13.5628 15.8576 13.4066 15.9472 13.1836 15.9919C12.9828 16.0143 12.8043 15.9919 12.6928 15.9024C12.6035 15.7905 12.4697 15.3876 12.3358 14.6936C12.1797 13.9773 11.8004 12.7686 11.1312 11.0674C10.4842 9.34381 10.0157 8.38129 9.79266 8.13507C9.70343 8.04553 9.56958 8.04553 9.41342 8.13507C9.25726 8.20222 8.69955 8.67229 7.80721 9.54527C6.91487 10.4406 6.08945 11.1569 5.30866 11.7165C5.28635 11.8508 5.35327 12.2985 5.46482 13.0372C5.57636 13.7759 5.62098 14.2683 5.59867 14.4474C5.55405 14.6265 5.37558 14.8727 5.08557 15.1637C4.92941 15.3204 4.81787 15.4099 4.70633 15.4323C4.41632 15.1413 3.97015 14.2012 3.36782 12.6567C1.69468 11.918 0.780033 11.4479 0.601565 11.2689C0.601565 11.1793 0.690799 11.045 0.846958 10.8883C1.13697 10.5973 1.38236 10.4183 1.58314 10.3959C1.76161 10.3511 2.23008 10.4183 2.96626 10.5526C3.70245 10.6645 4.14861 10.7093 4.30477 10.7093C4.84018 9.90342 5.84406 8.71705 7.40565 7.15016C7.85182 6.65771 7.98568 6.34433 7.82952 6.18764C7.60643 5.94141 6.62486 5.49373 4.92941 4.84458C3.21166 4.19544 2.02931 3.77014 1.31544 3.63584C0.601565 3.47915 0.200012 3.36723 0.110778 3.25531C-0.000764167 3.16577 -0.0230727 2.98669 0.0215443 2.76285C0.0438528 2.53901 0.133087 2.38232 0.244629 2.2704C0.467714 2.04656 1.67237 2.06894 3.8363 2.38232L4.61709 1.57649C4.97403 1.24073 5.30866 1.19596 5.57636 1.46457C5.82175 1.68841 5.79944 1.95702 5.55405 2.20325L5.1525 2.58378L7.07103 2.85239L7.60643 2.33755C8.14184 1.80033 8.52108 1.68841 8.78878 1.95702C9.03417 2.20325 9.01187 2.44947 8.74416 2.74047Z" fill="#64B1C9"/>
</svg>
