<svg width="17" height="17" viewBox="0 0 17 17" fill="none" xmlns="http://www.w3.org/2000/svg">
<rect width="17" height="17" fill="#64B1C9"/>
<path d="M13.192 3.39999H3.80799C3.58232 3.39999 3.39999 3.58232 3.39999 3.80799V13.192C3.39999 13.4177 3.58232 13.6 3.80799 13.6H13.192C13.4177 13.6 13.6 13.4177 13.6 13.192V3.80799C13.6 3.58232 13.4177 3.39999 13.192 3.39999ZM6.42557 12.0917H4.91214V7.22372H6.42557V12.0917ZM5.66949 6.55817C5.496 6.55817 5.3264 6.50672 5.18215 6.41033C5.03789 6.31395 4.92546 6.17695 4.85907 6.01666C4.79267 5.85637 4.7753 5.68 4.80915 5.50984C4.843 5.33968 4.92654 5.18337 5.04922 5.06069C5.1719 4.93802 5.3282 4.85447 5.49836 4.82062C5.66852 4.78678 5.8449 4.80415 6.00518 4.87054C6.16547 4.93693 6.30247 5.04937 6.39886 5.19362C6.49525 5.33788 6.54669 5.50747 6.54669 5.68097C6.54542 6.16547 6.15272 6.55817 5.66949 6.55817ZM12.0917 12.0917H10.5795V9.72399C10.5795 9.15917 10.5693 8.43369 9.79284 8.43369C9.00617 8.43369 8.88504 9.04824 8.88504 9.68319V12.0917H7.37417V7.22372H8.82512V7.88927H8.84552C9.04697 7.50677 9.54039 7.10259 10.2773 7.10259C11.8099 7.10259 12.0917 8.11112 12.0917 9.42182V12.0917Z" fill="white"/>
</svg>
