<svg width="17" height="17" viewBox="0 0 17 17" fill="none" xmlns="http://www.w3.org/2000/svg">
<rect width="17" height="17" fill="#64B1C9"/>
<path d="M8.49999 1.7C5.68649 1.7 3.39999 3.92278 3.39999 6.65787C3.39999 8.32702 4.39449 9.72349 5.55049 10.6985C5.91599 11.0043 6.55349 11.4918 7.12299 12.2107C7.75199 13.0122 8.32149 13.8716 8.49999 14.45C8.67849 13.8716 9.24799 13.0122 9.87699 12.2107C10.4465 11.4918 11.084 11.0043 11.4495 10.6985C12.6055 9.72349 13.6 8.32702 13.6 6.65787C13.6 3.92278 11.3135 1.7 8.49999 1.7ZM8.49999 3.81536C8.88398 3.81536 9.2642 3.88888 9.61896 4.03173C9.97372 4.17458 10.2961 4.38396 10.5676 4.64791C10.8391 4.91186 11.0545 5.22522 11.2014 5.57009C11.3484 5.91496 11.424 6.28459 11.424 6.65787C11.424 7.03116 11.3484 7.40078 11.2014 7.74565C11.0545 8.09052 10.8391 8.40388 10.5676 8.66783C10.2961 8.93178 9.97372 9.14116 9.61896 9.28401C9.2642 9.42686 8.88398 9.50038 8.49999 9.50038C7.7245 9.50038 6.98077 9.20091 6.43241 8.66783C5.88406 8.13476 5.57599 7.41175 5.57599 6.65787C5.57599 5.90399 5.88406 5.18098 6.43241 4.64791C6.98077 4.11483 7.7245 3.81536 8.49999 3.81536Z" fill="white"/>
</svg>
