<svg width="13" height="18" viewBox="0 0 13 18" fill="none" xmlns="http://www.w3.org/2000/svg">
<path d="M8.50885 3.34884C9.40708 3.34884 10.142 2.59535 10.142 1.67442C10.142 0.753488 9.40708 0 8.50885 0C7.61063 0 6.87571 0.753488 6.87571 1.67442C6.87571 2.59535 7.61063 3.34884 8.50885 3.34884ZM5.92032 13.3953L6.38577 11.3023L8.10057 12.9767V17.1628C8.10057 17.6233 8.46803 18 8.91714 18C9.36625 18 9.73371 17.6233 9.73371 17.1628V12.4409C9.73371 11.9805 9.55407 11.5451 9.22744 11.227L8.01891 10.0465L8.50885 7.53488C9.42907 8.61347 10.6888 9.32739 12.0691 9.55256C12.5591 9.62791 13 9.22605 13 8.71535C13 8.30512 12.706 7.96186 12.3059 7.89488C11.0647 7.68558 10.0358 6.93209 9.48874 5.94419L8.67217 4.60465C8.34554 4.10233 7.8556 3.76744 7.284 3.76744C7.03902 3.76744 6.87571 3.85116 6.63074 3.85116L3.38078 5.25767C3.08495 5.38732 2.8328 5.60325 2.65568 5.87862C2.47856 6.15399 2.38428 6.47665 2.38457 6.80651V8.7907C2.38457 9.25116 2.75202 9.62791 3.20114 9.62791C3.65025 9.62791 4.01771 9.25116 4.01771 8.7907V6.7814L5.48754 6.19535L4.18102 12.9767L0.980063 12.307C0.539114 12.2149 0.106331 12.5079 0.0165078 12.96V12.9935C-0.0733152 13.4456 0.212485 13.8893 0.653434 13.9814L4.00954 14.6679C4.42697 14.7529 4.86025 14.6674 5.21714 14.4297C5.57403 14.192 5.82633 13.8209 5.92032 13.3953Z" fill="#64B1C9"/>
</svg>
