<svg width="17" height="17" viewBox="0 0 17 17" fill="none" xmlns="http://www.w3.org/2000/svg">
<rect width="17" height="17" fill="#64B1C9"/>
<path d="M13.3119 4.25373C13.2637 4.24876 13.215 4.24876 13.1668 4.25373H3.25448C3.19095 4.25471 3.12785 4.26423 3.06686 4.28205L8.18232 9.37627L13.3119 4.25373Z" fill="white"/>
<path d="M13.8359 4.7458L8.68147 9.87897C8.54882 10.0108 8.36937 10.0849 8.18232 10.0849C7.99527 10.0849 7.81582 10.0108 7.68316 9.87897L2.57478 4.78475C2.55908 4.84246 2.55075 4.90194 2.55 4.96175V12.042C2.55 12.2298 2.62459 12.4098 2.75737 12.5426C2.89015 12.6754 3.07024 12.75 3.25802 12.75H13.1703C13.3581 12.75 13.5382 12.6754 13.671 12.5426C13.8038 12.4098 13.8784 12.2298 13.8784 12.042V4.96175C13.8755 4.88799 13.8612 4.81513 13.8359 4.7458ZM3.74302 12.042H3.25094V11.5357L5.8246 8.98332L6.32376 9.48247L3.74302 12.042ZM13.1633 12.042H12.6676L10.0869 9.48247L10.5861 8.98332L13.1597 11.5357L13.1633 12.042Z" fill="white"/>
</svg>
