<svg width="17" height="17" viewBox="0 0 17 17" fill="none" xmlns="http://www.w3.org/2000/svg">
<rect width="17" height="17" fill="#64B1C9"/>
<path d="M13.397 11.2057L10.8756 8.91321C10.7564 8.80488 10.5998 8.7471 10.4388 8.75208C10.2778 8.75706 10.125 8.8244 10.0128 8.93988L8.52843 10.4664C8.17115 10.3981 7.45286 10.1742 6.71349 9.43672C5.97412 8.69673 5.7502 7.97659 5.68383 7.6218L7.2091 6.13686C7.32472 6.02467 7.39216 5.87189 7.39714 5.71086C7.40212 5.54983 7.34424 5.39318 7.23577 5.27406L4.94383 2.75326C4.83531 2.63377 4.68448 2.56129 4.52338 2.55121C4.36228 2.54114 4.20359 2.59426 4.08102 2.6993L2.73502 3.85363C2.62778 3.96126 2.56377 4.1045 2.55514 4.25619C2.54583 4.41126 2.36843 8.08452 5.21676 10.9341C7.7016 13.4183 10.8142 13.6 11.6714 13.6C11.7967 13.6 11.8736 13.5963 11.8941 13.595C12.0457 13.5866 12.1889 13.5223 12.296 13.4145L13.4497 12.0679C13.5552 11.9458 13.6087 11.7872 13.5988 11.6261C13.589 11.465 13.5166 11.3142 13.397 11.2057Z" fill="white"/>
</svg>
