<svg width="16" height="16" viewBox="0 0 16 16" fill="none" xmlns="http://www.w3.org/2000/svg">
<path d="M8 16C6.91667 16 5.88021 15.7891 4.89062 15.3672C3.90104 14.9453 3.04948 14.3776 2.33594 13.6641C1.6224 12.9505 1.05469 12.099 0.632812 11.1094C0.210938 10.1198 0 9.08333 0 8C0 6.91667 0.210938 5.88021 0.632812 4.89062C1.05469 3.90104 1.6224 3.04948 2.33594 2.33594C3.04948 1.6224 3.90104 1.05469 4.89062 0.632812C5.88021 0.210938 6.91667 0 8 0C9.08333 0 10.1198 0.210938 11.1094 0.632812C12.099 1.05469 12.9505 1.6224 13.6641 2.33594C14.3776 3.04948 14.9453 3.90104 15.3672 4.89062C15.7891 5.88021 16 6.91667 16 8C16 9.08333 15.7891 10.1198 15.3672 11.1094C14.9453 12.099 14.3776 12.9505 13.6641 13.6641C12.9505 14.3776 12.099 14.9453 11.1094 15.3672C10.1198 15.7891 9.08333 16 8 16ZM4.57812 4.57812L3.82812 3.92188C3.71354 3.92188 3.57812 3.9349 3.42188 3.96094C3.26562 3.98698 3.125 4 3 4C2.98958 3.98958 2.89583 3.79688 2.71875 3.42188C1.57292 4.74479 1 6.27083 1 8C1 8.03125 1.0026 8.07292 1.00781 8.125C1.01302 8.17708 1.01562 8.21354 1.01562 8.23438C1.07812 8.29688 1.23177 8.41406 1.47656 8.58594C1.72135 8.75781 1.89583 8.89583 2 9H3C3.03125 8.97917 3.0599 8.96354 3.08594 8.95312C3.11198 8.94271 3.14062 8.93229 3.17188 8.92188C3.06771 8.80729 2.91406 8.63802 2.71094 8.41406C2.50781 8.1901 2.35417 8.02604 2.25 7.92188C2.29167 7.68229 2.34896 7.32031 2.42188 6.83594C2.49479 6.35156 2.54688 5.98958 2.57812 5.75C3.47396 5.375 4.14062 5.09896 4.57812 4.92188V4.57812ZM7.71875 2.03125C7.57292 1.96875 7.4375 1.91146 7.3125 1.85938C7.28125 1.77604 7.26042 1.71354 7.25 1.67188C7.1875 1.86979 7.08854 2.16667 6.95312 2.5625C6.99479 2.57292 7.05469 2.58333 7.13281 2.59375C7.21094 2.60417 7.27083 2.61458 7.3125 2.625H7.71875V2.03125ZM7.65625 9.39062C7.60417 9.44271 7.56771 9.48438 7.54688 9.51562C7.42188 9.73438 7.24479 10.0677 7.01562 10.5156C6.78646 10.9635 6.61458 11.2969 6.5 11.5156C6.64583 11.7344 6.86719 12.0677 7.16406 12.5156C7.46094 12.9635 7.68229 13.2969 7.82812 13.5156C9.18229 13.599 10.2083 13.6615 10.9062 13.7031C10.9271 13.9635 11.0104 14.1406 11.1562 14.2344C12.1042 13.7552 12.9062 13.0911 13.5625 12.2422C14.2188 11.3932 14.651 10.4427 14.8594 9.39062C14.6615 9.34896 14.4453 9.29167 14.2109 9.21875C13.9766 9.14583 13.8073 9.09635 13.7031 9.07031C13.599 9.04427 13.3932 9.01823 13.0859 8.99219C12.7786 8.96615 12.4583 8.98438 12.125 9.04688C12 9.05729 11.9193 8.97656 11.8828 8.80469C11.8464 8.63281 11.8281 8.45573 11.8281 8.27344C11.8281 8.09115 11.8073 7.99479 11.7656 7.98438C11.5365 7.94271 11.0729 7.98177 10.375 8.10156C9.67708 8.22135 9.21354 8.26042 8.98438 8.21875C8.84896 8.34375 8.40625 8.73438 7.65625 9.39062ZM8.57812 1.5625C8.54688 1.77083 8.49219 2.08333 8.41406 2.5C8.33594 2.91667 8.27604 3.23438 8.23438 3.45312C8.28646 3.44271 8.3724 3.42969 8.49219 3.41406C8.61198 3.39844 8.69792 3.39062 8.75 3.39062C8.71875 3.36979 8.68229 3.34896 8.64062 3.32812C8.79688 3.27604 8.91146 3.23438 8.98438 3.20312C8.80729 2.47396 8.67188 1.92708 8.57812 1.5625ZM10.3906 1.42188C10.3698 1.53646 10.3594 1.69792 10.3594 1.90625C10.3594 2.11458 10.3073 2.39062 10.2031 2.73438C10.2135 2.75521 10.2344 2.77604 10.2656 2.79688C10.474 2.77604 10.8229 2.73958 11.3125 2.6875C11.3125 2.46875 11.4219 2.25 11.6406 2.03125C11.2448 1.79167 10.8281 1.58854 10.3906 1.42188ZM12.3438 2.51562C12.3229 2.55729 12.2865 2.61458 12.2344 2.6875C12.4323 2.71875 12.5625 2.74479 12.625 2.76562C12.5 2.65104 12.4062 2.56771 12.3438 2.51562ZM12.7656 2.89062C12.7344 2.95312 12.6849 3.04688 12.6172 3.17188C12.5495 3.29688 12.5 3.39062 12.4688 3.45312C12.1667 3.46354 11.7604 3.47917 11.25 3.5L11.1875 2.96875C11.1667 2.97917 11.1302 2.99219 11.0781 3.00781C11.026 3.02344 10.9844 3.03125 10.9531 3.03125V3.79688C10.7344 3.81771 10.3984 3.84896 9.94531 3.89062C9.49219 3.93229 9.15625 3.96354 8.9375 3.98438C8.86458 4.08854 8.78646 4.20312 8.70312 4.32812C8.98438 4.93229 9.19792 5.38542 9.34375 5.6875C9.13542 5.73958 8.70833 5.85417 8.0625 6.03125V6.5625C8.0625 6.58333 8.07031 6.61458 8.08594 6.65625C8.10156 6.69792 8.11458 6.72917 8.125 6.75C8.30208 6.83333 8.57812 6.95833 8.95312 7.125C9.32812 7.29167 9.60938 7.42188 9.79688 7.51562L10.1406 7.09375C10.1302 6.98958 10.1042 6.82552 10.0625 6.60156C10.0208 6.3776 9.98958 6.20833 9.96875 6.09375C10 6.07292 10.0495 6.04427 10.1172 6.00781C10.1849 5.97135 10.2344 5.94271 10.2656 5.92188C10.5469 5.83854 10.7604 5.78125 10.9062 5.75C11.0417 5.96875 11.2318 6.28125 11.4766 6.6875C11.7214 7.09375 11.875 7.34896 11.9375 7.45312C12.0312 7.36979 12.1615 7.24219 12.3281 7.07031C12.4948 6.89844 12.6198 6.77083 12.7031 6.6875C12.1406 6.29167 11.7708 6.03646 11.5938 5.92188C11.6042 5.83854 11.625 5.71875 11.6562 5.5625H12.2344C12.8177 6.0625 13.4167 6.57292 14.0312 7.09375C14.0417 7.09375 14.0521 7.08594 14.0625 7.07031C14.0729 7.05469 14.0833 7.04688 14.0938 7.04688C14.0521 6.96354 13.9167 6.70833 13.6875 6.28125C13.6875 6.27083 13.7031 6.25 13.7344 6.21875L13.7969 6.15625H14.4375C14.4479 6.14583 14.5365 6.09896 14.7031 6.01562C14.349 4.80729 13.7031 3.76562 12.7656 2.89062Z" fill="#64B1C9"/>
</svg>
