<svg width="34" height="24" viewBox="0 0 34 24" fill="none" xmlns="http://www.w3.org/2000/svg">
<g clip-path="url(#clip0)">
<path d="M33.2489 3.74333C33.0539 3.01981 32.6735 2.36019 32.1456 1.83017C31.6176 1.30015 30.9606 0.918215 30.2399 0.7224C27.6015 0 16.9826 0 16.9826 0C16.9826 0 6.36316 0.0218666 3.7247 0.744267C3.004 0.940093 2.34696 1.32205 1.81903 1.85209C1.2911 2.38214 0.9107 3.04178 0.715702 3.76533C-0.0823685 8.47173 -0.391955 15.6432 0.737616 20.1613C0.932634 20.8849 1.31305 21.5445 1.84098 22.0745C2.3689 22.6045 3.02593 22.9865 3.74662 23.1823C6.38507 23.9047 17.0042 23.9047 17.0042 23.9047C17.0042 23.9047 27.6233 23.9047 30.2616 23.1823C30.9823 22.9865 31.6393 22.6045 32.1673 22.0745C32.6952 21.5445 33.0757 20.8849 33.2707 20.1613C34.1125 15.4483 34.3719 8.28133 33.2489 3.74347V3.74333Z" fill="#FF0000"/>
<path d="M13.6027 17.0747L22.412 11.9523L13.6028 6.82986L13.6027 17.0747Z" fill="white"/>
</g>
<defs>
<clipPath id="clip0">
<rect width="34" height="24" fill="white"/>
</clipPath>
</defs>
</svg>
